<?xml version="1.0" standalone="no"?>
<!DOCTYPE svg PUBLIC "-//W3C//DTD SVG 20010904//EN"
 "http://www.w3.org/TR/2001/REC-SVG-20010904/DTD/svg10.dtd">
<svg version="1.0" xmlns="http://www.w3.org/2000/svg"
 width="225.000000pt" height="225.000000pt" viewBox="0 0 225.000000 225.000000"
 preserveAspectRatio="xMidYMid meet">

<g transform="translate(0.000000,225.000000) scale(0.100000,-0.100000)"
fill="#000000" stroke="none">
<path d="M812 2195 c-39 -33 -63 -94 -69 -181 -10 -122 43 -339 93 -385 15
-13 25 -19 22 -14 -2 6 -14 30 -25 55 -29 61 -56 245 -51 340 7 121 42 170
120 170 77 0 150 -148 149 -305 0 -116 -48 -219 -127 -274 -43 -30 -149 -139
-180 -185 -88 -130 -131 -308 -108 -448 12 -72 21 -38 26 95 5 124 7 137 42
220 20 48 48 106 62 129 32 51 128 147 211 211 47 36 70 63 92 109 28 56 31
70 31 158 0 57 -6 117 -15 148 -43 143 -189 227 -273 157z"/>
<path d="M1160 2014 c5 -21 10 -60 10 -86 l0 -46 53 -7 c338 -44 611 -277 714
-610 14 -48 18 -93 18 -233 0 -94 3 -172 6 -172 15 0 28 28 22 49 -6 22 -4 23
20 17 14 -3 29 -2 32 4 10 16 25 11 25 -9 0 -10 7 -24 15 -31 20 -17 19 -27
-5 -33 -11 -3 -20 -10 -20 -15 0 -12 58 -34 64 -24 11 20 27 233 22 290 -27
276 -113 461 -300 648 -176 177 -377 273 -604 291 l-81 6 9 -39z m310 -74 c0
-10 7 -23 16 -28 15 -8 15 -11 -3 -29 -11 -11 -23 -27 -25 -34 -5 -11 -8 -12
-19 -1 -7 6 -24 12 -36 12 -21 0 -22 3 -13 20 7 14 7 26 1 39 -12 21 -5 32 14
24 8 -2 22 0 32 6 26 15 33 13 33 -9z m271 -149 c20 10 21 9 14 -20 -4 -20 -3
-31 4 -31 6 0 11 -7 11 -15 0 -8 -7 -15 -16 -15 -9 0 -23 -8 -31 -17 -13 -17
-14 -17 -29 5 -9 12 -23 22 -32 22 -13 0 -13 2 1 18 10 10 17 29 17 41 0 19 3
20 20 11 14 -8 26 -8 41 1z m185 -246 c4 -8 14 -15 23 -15 13 0 16 -9 16 -40
0 -35 -2 -39 -21 -34 -12 3 -25 1 -28 -5 -10 -16 -26 -13 -26 5 0 9 -10 24
-22 34 l-22 17 22 7 c11 4 24 16 27 27 8 23 23 25 31 4z m150 -325 c18 0 18
-14 -1 -30 -8 -7 -15 -21 -15 -32 0 -16 -3 -17 -20 -8 -12 6 -30 8 -42 4 -18
-5 -20 -3 -14 19 3 14 2 29 -4 32 -16 10 -11 25 9 25 10 0 25 7 32 16 12 15
15 14 27 -5 8 -11 21 -21 28 -21z"/>
<path d="M595 1904 c-182 -112 -325 -282 -409 -485 -63 -153 -84 -308 -66
-483 7 -61 14 -114 16 -118 6 -10 64 12 64 24 0 5 -9 12 -20 15 -24 6 -25 16
-5 33 8 7 15 21 15 31 0 20 15 25 25 9 3 -6 18 -7 31 -4 23 6 25 4 23 -17 -4
-25 7 -49 20 -49 5 0 6 57 4 128 -3 74 -1 158 6 201 14 90 67 221 126 312 54
82 160 190 228 232 47 29 48 31 42 66 -4 20 -10 60 -14 88 -4 29 -10 55 -12
57 -2 2 -35 -16 -74 -40z m-8 -166 c14 -16 14 -18 1 -18 -9 0 -23 -10 -32 -22
-15 -22 -16 -22 -29 -5 -8 9 -22 17 -31 17 -18 0 -22 15 -5 26 6 3 8 17 4 31
-5 23 -3 25 19 21 14 -3 31 -1 38 3 9 6 14 2 16 -14 2 -12 11 -30 19 -39z
m-232 -197 c3 -11 16 -23 27 -27 l22 -7 -22 -17 c-12 -10 -22 -26 -22 -34 0
-14 -4 -15 -20 -6 -12 6 -29 9 -38 6 -15 -5 -17 1 -17 34 0 31 3 40 16 40 9 0
19 7 23 15 8 21 23 19 31 -4z m-91 -311 c13 0 16 -5 11 -17 -4 -10 -7 -28 -6
-41 1 -19 -3 -21 -23 -16 -13 3 -27 1 -30 -5 -11 -17 -26 -13 -26 8 0 10 -7
24 -15 31 -19 16 -19 30 0 30 8 0 19 9 25 21 11 19 13 19 29 5 10 -9 26 -16
35 -16z"/>
<path d="M1055 1626 c-6 -8 -32 -42 -59 -77 -54 -70 -87 -137 -110 -225 l-15
-58 62 -66 c34 -36 82 -91 107 -123 l45 -58 55 6 c38 4 90 23 169 62 108 53
116 55 170 50 70 -8 203 -53 298 -101 40 -20 74 -36 77 -36 9 0 -37 108 -76
178 -51 94 -131 175 -203 208 -30 14 -118 39 -196 55 -77 16 -153 35 -168 43
-33 17 -107 96 -123 131 -13 29 -19 31 -33 11z"/>
<path d="M1222 1600 c0 -14 2 -19 5 -12 2 6 2 18 0 25 -3 6 -5 1 -5 -13z"/>
<path d="M1306 1555 c-3 -9 -6 -22 -5 -28 0 -7 5 -1 10 12 5 13 8 26 5 28 -2
2 -6 -3 -10 -12z"/>
<path d="M1509 1503 c-13 -16 -12 -17 4 -4 9 7 17 15 17 17 0 8 -8 3 -21 -13z"/>
<path d="M864 1458 c-76 -91 -104 -225 -84 -402 10 -99 15 -116 30 -116 15 0
16 6 9 43 -22 116 -4 276 49 425 16 45 28 82 26 82 -1 0 -15 -15 -30 -32z"/>
<path d="M640 1446 c0 -2 8 -10 18 -17 15 -13 16 -12 3 4 -13 16 -21 21 -21
13z"/>
<path d="M528 1143 c7 -3 16 -2 19 1 4 3 -2 6 -13 5 -11 0 -14 -3 -6 -6z"/>
<path d="M528 933 c7 -3 16 -2 19 1 4 3 -2 6 -13 5 -11 0 -14 -3 -6 -6z"/>
<path d="M840 928 c-175 -16 -407 -58 -545 -98 -76 -22 -140 -42 -143 -45 -3
-3 0 -26 6 -53 7 -26 26 -105 42 -176 17 -72 32 -131 34 -133 2 -2 54 12 115
32 456 148 1092 147 1553 -1 59 -19 110 -34 112 -34 2 0 12 33 20 73 9 39 28
120 43 179 15 59 25 109 22 113 -4 3 -68 23 -144 45 -146 43 -376 83 -565 100
-136 12 -416 11 -550 -2z m904 -93 c0 -11 -4 -44 -8 -73 l-8 -52 30 30 c33 32
67 38 97 16 10 -7 26 -12 34 -9 37 8 41 -9 21 -95 -10 -46 -21 -86 -24 -89 -3
-4 -17 -1 -31 5 -14 6 -31 9 -39 6 -17 -6 -56 12 -73 35 -7 9 -13 34 -14 56
-1 41 -3 37 -14 -27 -5 -32 -10 -38 -30 -38 -14 0 -25 2 -25 5 0 11 30 212 35
233 7 30 50 28 49 -3z m-674 -5 c16 -16 20 -33 20 -95 0 -73 -1 -75 -25 -75
-23 0 -24 3 -27 68 -3 59 -5 67 -23 67 -18 0 -20 -8 -23 -66 -3 -59 -5 -68
-24 -73 -12 -3 -23 -4 -25 -2 -2 1 -6 44 -10 95 l-6 92 36 -3 c20 -1 39 1 43
5 14 13 44 7 64 -13z m155 10 c5 -8 11 -7 21 1 7 6 21 9 29 5 12 -4 15 -24 15
-96 l0 -90 -38 2 c-22 0 -44 -2 -50 -6 -6 -4 -26 0 -45 7 -89 38 -62 187 34
187 15 0 31 -5 34 -10z m207 -10 c13 -5 32 -16 43 -25 19 -16 19 -17 2 -30
-15 -11 -23 -11 -44 0 -39 20 -67 5 -71 -38 -4 -40 17 -53 67 -42 41 9 60 -17
29 -39 -48 -34 -128 -9 -147 44 -23 68 14 126 91 139 4 0 17 -3 30 -9z m-538
-31 c37 -44 35 -92 -5 -130 -21 -20 -42 -29 -64 -29 -37 0 -85 33 -85 58 0 9
-9 -1 -19 -23 -32 -71 -101 -86 -149 -31 l-30 35 -7 -27 c-10 -42 -44 -72 -80
-72 -31 0 -32 -2 -31 -37 1 -32 -3 -39 -21 -41 -19 -3 -22 4 -33 67 -6 39 -18
93 -25 121 -12 46 -12 50 6 55 10 4 23 4 28 1 5 -3 14 1 21 9 15 18 70 20 93
3 9 -7 23 -26 32 -43 14 -27 15 -28 15 -7 0 52 49 103 98 102 27 -1 64 -25 78
-51 10 -18 13 -20 14 -7 0 9 12 30 26 47 21 26 33 31 69 31 36 0 48 -5 69 -31z
m654 13 c8 -6 11 -29 10 -73 -3 -59 -1 -64 19 -67 23 -3 28 11 35 93 3 30 31
46 49 28 14 -14 -10 -136 -31 -157 -25 -26 -76 -23 -106 5 -25 24 -29 50 -18
133 7 45 16 54 42 38z m-1239 -91 c21 -13 4 -53 -20 -46 -10 4 -19 2 -19 -3 0
-5 15 -13 33 -18 44 -13 65 -55 43 -89 -29 -45 -110 -46 -104 -2 2 17 9 21 30
19 41 -4 43 15 3 28 -47 15 -69 48 -56 83 12 32 60 47 90 28z m1665 2 c4 -4
17 -8 29 -8 29 0 31 -38 2 -44 -26 -4 -32 -15 -45 -78 -9 -41 -16 -53 -30 -53
-10 0 -21 4 -25 9 -5 9 4 62 26 144 9 35 26 47 43 30z"/>
<path d="M1790 699 c-24 -44 10 -96 48 -73 24 16 28 65 6 81 -25 18 -42 16
-54 -8z"/>
<path d="M1160 780 c-22 -42 14 -86 58 -69 25 9 31 56 10 77 -19 19 -56 14
-68 -8z"/>
<path d="M789 759 c-16 -30 3 -69 34 -69 29 0 47 17 47 45 0 45 -60 63 -81 24z"/>
<path d="M618 753 c-27 -7 -34 -50 -13 -73 25 -27 53 -25 67 5 9 19 8 29 -6
50 -9 14 -20 24 -24 24 -4 -1 -15 -3 -24 -6z"/>
<path d="M412 708 c-7 -7 -12 -22 -12 -34 0 -51 72 -61 78 -11 6 47 -36 75
-66 45z"/>
<path d="M114 613 c-21 -7 -45 -15 -52 -18 -9 -3 9 -30 52 -77 36 -40 66 -79
65 -88 0 -8 -8 -58 -19 -110 -10 -52 -17 -96 -16 -98 2 -1 46 18 99 43 53 25
101 45 107 45 18 0 10 20 -23 57 -32 34 -35 36 -67 24 -19 -6 -37 -8 -41 -4
-3 5 -20 60 -36 124 l-29 116 -40 -14z"/>
<path d="M2096 609 c-3 -8 -17 -61 -32 -119 -15 -58 -28 -107 -30 -108 -1 -2
-19 1 -39 8 -33 11 -39 10 -62 -11 -55 -52 -53 -55 63 -109 59 -28 108 -49
110 -48 1 2 -6 46 -16 98 -11 52 -19 102 -19 110 -1 9 29 48 65 88 l66 72 -27
10 c-53 20 -75 22 -79 9z"/>
<path d="M1123 490 c0 -30 2 -43 4 -27 2 15 2 39 0 55 -2 15 -4 2 -4 -28z"/>
<path d="M1022 475 c0 -16 2 -22 5 -12 2 9 2 23 0 30 -3 6 -5 -1 -5 -18z"/>
<path d="M1222 480 c0 -14 2 -19 5 -12 2 6 2 18 0 25 -3 6 -5 1 -5 -13z"/>
<path d="M425 448 c-44 -11 -84 -23 -89 -28 -10 -10 80 -110 149 -165 337
-272 802 -301 1177 -74 85 52 268 223 253 238 -6 5 -46 18 -91 28 l-81 19 -39
-33 c-127 -111 -257 -181 -384 -210 -100 -22 -290 -22 -390 0 -127 29 -245 93
-385 210 l-40 34 -80 -19z m135 -68 c6 -11 17 -20 25 -20 19 0 19 -16 0 -24
-8 -3 -15 -17 -15 -31 0 -22 -3 -24 -18 -16 -10 6 -28 8 -39 5 -17 -5 -21 -1
-20 18 0 12 -3 31 -7 41 -6 13 -3 17 12 17 11 0 22 7 26 15 8 21 23 19 36 -5z
m1166 5 c4 -8 15 -15 26 -15 15 0 18 -4 12 -17 -4 -10 -7 -29 -7 -41 1 -19 -3
-23 -20 -18 -11 3 -29 1 -39 -5 -15 -8 -18 -6 -18 12 0 12 -7 31 -17 41 -15
16 -15 18 0 18 9 0 21 9 27 20 13 24 28 26 36 5z m-916 -155 c0 -5 11 -10 25
-10 22 0 25 -4 23 -28 -1 -15 1 -33 6 -40 5 -8 -1 -12 -21 -12 -16 0 -34 -5
-41 -12 -8 -8 -14 -5 -21 14 -5 14 -16 28 -23 32 -9 4 -7 10 10 22 12 9 22 23
22 30 0 8 5 14 10 14 6 0 10 -4 10 -10z m650 0 c0 -5 10 -19 23 -30 20 -20 21
-22 5 -31 -10 -6 -18 -19 -18 -29 0 -21 -15 -27 -25 -10 -3 6 -20 10 -36 10
-26 0 -28 2 -20 18 6 10 7 28 4 40 -4 18 -1 22 21 22 14 0 26 5 26 10 0 6 5
10 10 10 6 0 10 -4 10 -10z m-335 -62 c6 0 18 3 29 7 16 7 17 5 11 -14 -4 -15
-1 -29 10 -41 16 -18 16 -19 -8 -25 -14 -4 -28 -13 -31 -21 -7 -18 -26 -18
-26 0 0 8 -12 17 -26 20 -25 7 -26 8 -9 26 11 12 15 28 12 40 -4 17 -2 20 11
15 9 -4 22 -7 27 -7z"/>
<path d="M1011 414 c0 -11 3 -14 6 -6 3 7 2 16 -1 19 -3 4 -6 -2 -5 -13z"/>
<path d="M1231 414 c0 -11 3 -14 6 -6 3 7 2 16 -1 19 -3 4 -6 -2 -5 -13z"/>
</g>
</svg>
